<?xml version="1.0" encoding="UTF-8"?>
<svg version="1.1" viewBox="0 0 2048 2048" width="512" height="512" xmlns="http://www.w3.org/2000/svg">
<path transform="translate(981)" d="m0 0h83l50 9 30 8 18 6 29 12 23 12 20 12 26 20 10 9 2 1v2l4 2v2h2v2h2l7 8 9 9 11 15 13 19 8 14 13 28 7 21 7 25 5 36 1 11v29l-1 28-2 18-6 36-5 21-12 41-7 20-18 44-8 18-12 22-8 16-3 7 15-23 12-20 12-16 14-18 10-13 11-14 9-10 7-7 2-3h2l2-4 30-30 14-11 13-11 13-10 15-10 29-17 16-8 29-12 16-5 30-7 13-2 28-2h16l32 3 28 6 24 7 33 14 23 13 16 10 21 16 16 13 12 12 2 1v2l4 2v2l4 2 7 8 9 10 8 10 13 17 15 23 9 15 15 29 8 19 11 30 9 34 4 23 3 24v55l-5 35-7 26-6 18-8 18-9 19-18 27-8 11-14 15-10 10-6 7-17 13-18 14-15 9-25 14-16 8-33 13-20 7-21 6-38 9-36 6-37 5-10 1-50 1 47 3 62 8 28 5 52 13 20 7 36 14 27 14 21 12 14 10 17 13 10 8 7 6v2l3 1 7 8 9 9 9 11 12 17 11 17 8 16 10 22 8 25 5 20 4 28 1 13v43l-2 21-4 26-9 35-8 24-11 27-15 30-9 15-20 30-9 11-8 10-12 14-23 23-8 7-15 12-19 14-22 13-16 9-26 11-17 6-36 9-17 2-19 2h-20l-34-3-26-6-19-5-28-11-20-9-28-17-15-9-14-11-11-9-16-13-8-7-32-32-7-8-10-11-13-17-12-15-10-13-10-14-15-24-13-20-6-9 10 19 12 22 10 19 14 34 12 30 6 18 13 46 4 20 6 39 1 13 1 40-3 32-5 30-11 36-7 16-10 21-9 15-13 18-10 13-30 30-28 21-17 10-16 9-16 8-27 11-30 9-26 6-36 6-19 2h-46l-21-2-42-7-32-8-24-8-26-11-16-8-26-15-18-14-13-10-10-9-16-16-9-11-12-16-10-15-12-23-9-20-8-25-6-25-5-37v-50l2-21 7-44 6-23 12-41 8-22 14-34 8-18 20-39 1-2-6 9-15 24-7 10-16 21-10 13-14 18-11 12-14 15-16 16-3 4h-2l-1 3-11 9-13 11-14 11-13 10-23 14-22 13-28 12-19 7-36 9-12 2-37 3-20-1-27-3-26-6-17-5-28-11-16-8-21-12-14-9-21-16-11-9-11-11-8-7-12-12-7-8-14-17-12-16-13-20-9-15-12-23-9-19-13-35-8-29-5-24-4-31v-54l5-36 9-32 6-17 13-28 12-19 13-19 10-11 7-8 10-10 6-7 14-11 17-13 13-9 25-14 18-10 41-16 20-7 56-14 39-6 36-5 31-2 35-1-58-3-48-6-33-5-56-14-18-6-41-16-27-14-24-14-16-12-13-10-11-9-12-12-7-8-8-8-10-13-16-24-11-21-10-23-9-30-4-19-4-32v-47l5-38 6-26 7-25 13-34 12-25 10-19 11-17 12-18 7-9 9-11 8-10 12-13 21-21 11-9 18-14 13-9 22-13 14-8 29-12 15-5 28-7 21-3 21-2h17l36 3 27 6 22 6 36 15 17 9 15 9 21 13 12 10 10 8 16 13 10 8 7 8 25 25 7 8 10 11 10 13 11 14 14 18 10 14 12 20 14 22 3 4-10-20-20-38-11-27-14-35-9-29-10-36-6-34-3-20-1-12-1-26v-28l4-30 3-19 12-40 12-26 10-19 10-14 13-18 16-17 16-16 17-13 16-12 26-15 16-8 28-12 18-6 30-8 27-5zm295 586v3zm-504 3 1 2zm502 1m-1 1m-503 873m-1 1 1 2zm-1 2 1 2z" fill="#FE7489"/>
<path transform="translate(772,1021)" d="m0 0h7l1 21 1 2 2 19 4 20 7 23 8 19 4 8 11 20 9 14 11 13 8 10 13 13 8 7 15 12 20 13 3 3-2 5-10 17-13 22-7 11-6 11-10 16-6 11-24 40-29 49-7 12-6 9-6 11-7 10-6 12-6 9-15 24-7 10-16 21-10 13-14 18-11 12-14 15-16 16-3 4h-2l-1 3-11 9-13 11-14 11-13 10-23 14-22 13-28 12-19 7-36 9-12 2-37 3-20-1-27-3-26-6-17-5-28-11-16-8-21-12-14-9-21-16-11-9-11-11-8-7-12-12-7-8-14-17-12-16-13-20-9-15-12-23-9-19-13-35-8-29-5-24-4-31v-54l5-36 9-32 6-17 13-28 12-19 13-19 10-11 7-8 10-10 6-7 14-11 17-13 13-9 25-14 18-10 41-16 20-7 56-14 39-6 14-2h21l3-1h19l15-1h10l38-2h17l10-1 2 1 9-1h24l25-1h48l36-1 20-1h16z" fill="#FE4564"/>
<path transform="translate(981)" d="m0 0h83l50 9 30 8 18 6 29 12 23 12 20 12 26 20 10 9 2 1v2l4 2v2h2v2h2l7 8 9 9 11 15 13 19 8 14 13 28 7 21 7 25 5 36 1 11v29l-1 28-2 18-6 36-5 21-12 41-7 20-18 44-8 18-12 22-8 16-6 11h-2l-2 5-6 12-10 17-6 12-14 24-6 11-9 16-12 22-15 27-13 23-8 15-8 13-7 14-6 10v5l-9-2-27-13-27-9-25-6-15-2h-47l-17 2-19 4-20 6-16 6-25 12-4 2-5-1-4-10-7-11-7-14-6-10-12-21-4-8-13-23-16-29-15-27-13-23-13-24-10-18-2-5h-2l-11-22-20-38-11-27-14-35-9-29-10-36-6-34-3-20-1-12-1-26v-28l4-30 3-19 12-40 12-26 10-19 10-14 13-18 16-17 16-16 17-13 16-12 26-15 16-8 28-12 18-6 30-8 27-5z" fill="#FE4564"/>
<path transform="translate(1271,1020)" d="m0 0 176 2 81 2h41l31 3 58 8 28 6 42 11 25 9 28 11 27 14 21 12 14 10 17 13 10 8 7 6v2l3 1 7 8 9 9 9 11 12 17 11 17 8 16 10 22 8 25 5 20 4 28 1 13v43l-2 21-4 26-9 35-8 24-11 27-15 30-9 15-20 30-9 11-8 10-12 14-23 23-8 7-15 12-19 14-22 13-16 9-26 11-17 6-36 9-17 2-19 2h-20l-34-3-26-6-19-5-28-11-20-9-28-17-15-9-14-11-11-9-16-13-8-7-32-32-7-8-10-11-13-17-12-15-10-13-10-14-15-24-13-20-5-8-3-7-24-40-17-28-13-22-24-40-13-22-15-25-5-9-14-22-1-5 15-9 17-12 14-12 8-7 7-8 10-11 8-11 1-3h2l2-5 9-15 8-16 8-19 6-19 5-20 3-25 1-1 1-20z" fill="#FE4564"/>
<path transform="translate(409,330)" d="m0 0h17l36 3 27 6 22 6 36 15 17 9 15 9 21 13 12 10 10 8 16 13 10 8 7 8 25 25 7 8 10 11 10 13 11 14 14 18 10 14 12 20 14 22 4 6h2l16 29 60 108 8 14 12 22 8 14 7 12 6 11 5 9 1 4 2 2-15 10-17 13-10 9-5 4-7 8-7 6-4 7h-2l-1 4h-2l-2 5-7 10-9 14-11 23-2 5h-2v5l-2 6h-2l-1 9-4 14h-2v8l-3 16-1 10-1 42h-1v-21l-7 1-31 1h-13l-19 1-49 1h-45l-25 1h-18l-6 1-3-1-16 1h-16l-36 2h-10l-17 1h-14l-2 1-13-1v-1l15-2 31-2 35-1-58-3-48-6-33-5-56-14-18-6-41-16-27-14-24-14-16-12-13-10-11-9-12-12-7-8-8-8-10-13-16-24-11-21-10-23-9-30-4-19-4-32v-47l5-38 6-26 7-25 13-34 12-25 10-19 11-17 12-18 7-9 9-11 8-10 12-13 21-21 11-9 18-14 13-9 22-13 14-8 29-12 15-5 28-7 21-3z" fill="#FE7489"/>
<path transform="translate(903,1237)" d="m0 0 5 2 23 11 27 9 22 5 9 2 11 1h34l22-1 22-4 24-7 27-11 15-7 4 7 10 16 9 16 11 18 15 25 13 22 60 100 7 11-1 3 10 19 12 22 10 19 14 34 12 30 6 18 13 46 4 20 6 39 1 13 1 40-3 32-5 30-11 36-7 16-10 21-9 15-13 18-10 13-30 30-28 21-17 10-16 9-16 8-27 11-30 9-26 6-36 6-19 2h-46l-21-2-42-7-32-8-24-8-26-11-16-8-26-15-18-14-13-10-10-9-16-16-9-11-12-16-10-15-12-23-9-20-8-25-6-25-5-37v-50l2-21 7-44 6-23 12-41 8-22 14-34 8-18 20-39 6-12 2-5 6-8 6-11 6-9 6-11 14-24 18-30 13-22 12-20 14-24 21-35 11-19 4-6z" fill="#FE7489"/>
<path transform="translate(1e3 780)" d="m0 0h47l15 2 25 6 27 9 31 15 10 6 17 12 10 9 8 7 10 9 7 8 5 7 3 3v2h2l2 5h2l4 7 4 5v3h2l1 5h2l4 8 5 9 3 7 9 24 6 21 4 23 2 22-1 30-4 30-7 25-8 22-9 19-13 21-1 2h-2l-1 4-9 12-14 15-4 5-8 7-13 11-13 9-16 10-19 10-28 11-13 4-23 5-7 1-22 1h-34l-11-1-27-6-20-6-20-8-23-12-19-13-16-13-15-14-8-8-8-10-11-14-11-19-6-11-7-15-8-21-6-23-3-18-1-12v-44l3-22 2-12h2l1-8 4-15h2v-5l2-6h2l3-9 10-21 10-15 7-10 1-2h2l1-4h2l2-5 14-14 5-6 8-7 18-14 18-12 26-13 15-6 18-6 16-4 17-3z" fill="#FEE799"/>
<path transform="translate(1e3 780)" d="m0 0h47l15 2 25 6 3 2-7 2-10 1-13 4-15 6-22 12-16 10-14 11-14 12-16 16-11 14-10 14-11 19-9 20-7 20-7 28-3 22-1 8v35l4 27 6 24 8 22 12 25 6 10 8 12 9 12 9 10 7 8 14 14 17 13 11 8 21 12 17 8 23 8 4 4-9 3-17 3-22 1h-34l-11-1-27-6-20-6-20-8-23-12-19-13-16-13-15-14-8-8-8-10-11-14-11-19-6-11-7-15-8-21-6-23-3-18-1-12v-44l3-22 2-12h2l1-8 4-15h2v-5l2-6h2l3-9 10-21 10-15 7-10 1-2h2l1-4h2l2-5 14-14 5-6 8-7 18-14 18-12 26-13 15-6 18-6 16-4 17-3z" fill="#FED74F"/>
<path transform="translate(1560,651)" d="m0 0h15l12 6 6 7 4 8 1 5v10l-5 12-8 8-21 14-19 12-13 8-22 14-19 12-16 10-38 24-24 15-33 21-19 12-13 8-44 28-19 12-23 14-14 9-3-1-3-6-6-10v-3h-2l-1-5h-2l-4-7-4-5v-3h-2l-2-5h-2l-3-6v-2l14-9 16-10 22-14 24-15 41-26 38-24 25-16 21-13 22-14 41-26 24-15 41-26 14-7z" fill="#FC0938"/>
<path transform="translate(424,781)" d="m0 0h13l20 6 98 35 19 7 95 34 81 29 35 13 15 5 5 1-1 7-6 14h-2v5l-2 6h-2l-1 9-4 14h-2l-1 4-7-1-43-16-29-10-27-10-23-8-204-73-25-9-12-6-9-9-3-7-1-5v-9l3-10 7-9 8-5z" fill="#FC0938"/>
<path transform="translate(1264,1075)" d="m0 0 6 2 14 5 47 16 54 19 42 15 22 8 29 10 56 20 15 5 10 4 21 8 8 5v2h2l5 8 3 7 1 10-2 7-5 10h-2l-1 3-6 5-9 4h-12l-16-5-84-30-29-10-28-10-36-13-26-9-42-15-23-8-28-11-7-1 1-7 8-18 7-22 3-11z" fill="#FC0938"/>
<path transform="translate(1024,468)" d="m0 0 13 2 9 6 5 6 3 8 3 20 1 69v57l-1 143-1 1h-63l-1-1v-272l1-14 3-9 7-8 13-7z" fill="#FC0938"/>
<path transform="translate(992,1268)" d="m0 0h63v292l-2 9-4 8-5 5-9 6-5 2h-11l-10-4-9-7-4-6-3-12-1-196z" fill="#FC0938"/>
<path transform="translate(1226,1162)" d="m0 0 3 1 4 5 11 9 15 14 8 7 10 9 14 12 12 11 10 9 14 12 24 22 13 11 12 11 10 9 14 12 10 9 8 7 6 6v2h2l6 10 3 14-5 14-3 4-5 4-7 5-5 2h-13l-14-7-10-9-10-8-4-3v-2l-4-2-16-15-10-8v-2l-4-2-11-10-8-7-7-7-11-9-10-9-8-7-7-7-11-9-10-9-8-7-7-7-11-9-16-15-7-6-8-7 2-4 20-20 7-8 9-12 1-3z" fill="#FC0938"/>
<path transform="translate(793,1111)" d="m0 0h2v2h2l5 12 4 8 11 20 8 13-1 5-9 3-28 15-10 6-8 4-18 10-11 6-23 12-10 6-11 6-17 9-11 6-15 8-12 6-9 2-7 2-9-3-9-6-7-7-5-13v-8l1-7 5-8 13-10 27-15 23-12 88-48 32-17 6-3z" fill="#FC0938"/>
<path transform="translate(702,731)" d="m0 0h12l10 4 13 10 12 10 10 8 14 12 10 8 14 12 10 8 14 12 10 8 13 11 12 9-1 4-12 13-5 4-4 7h-2l-1 4h-2l-2 5-7 10-5 1-14-12-2-1v-2l-4-2-14-12-6-4v-2l-4-2-13-11-10-8-14-12-9-7-13-11-10-8-14-12-6-7-4-10v-15l6-12 9-7z" fill="#FC0938"/>
<path transform="translate(1021,189)" d="m0 0h8l9 3 8 5 6 8 3 9 2 24v98l-1 20-2 9-6 10-6 5-8 4-4 1h-10l-10-4-10-8-4-5-3-14-1-38v-93l1-11 3-8 8-7 8-5z" fill="#FC0938"/>
<path transform="translate(488,1281)" d="m0 0h9l11 4 8 7v2h2l4 8 1 7v8l-3 10-8 9h-2v2l-7 5-11 6-10 6-16 8-18 10-11 6-19 10-8 5-19 9-9 3-11 1-9-4-8-6-6-8-2-3-1-6v-12l3-9 7-7 10-7 25-14 23-12 32-18 12-6 19-10z" fill="#FC0938"/>
<path transform="translate(1017,1660)" d="m0 0h12l11 4 9 8 4 9 2 12v131l-3 11-6 9-10 7-7 2h-11l-8-3-9-7-4-5-4-13-1-86v-43l2-16 6-10 9-7z" fill="#FC0938"/>
<path transform="translate(1480,1402)" d="m0 0 11 1 12 6 17 14 14 13 2 1v2l4 2 10 9 8 7 10 9 12 11 8 7 5 6 5 11v12l-4 12-5 6-9 6-7 3h-9l-11-4-16-12-13-12-14-12-8-7-15-14-11-9-8-7-7-8-7-11-2-6v-9l3-9 5-8 10-7z" fill="#FC0938"/>
<path transform="translate(540,596)" d="m0 0h10l11 4 16 12 3 2v2l4 2 11 9 9 7v2l4 2 10 8 13 11 10 8 10 10 6 12v14l-5 10-7 8-10 5h-16l-8-4-11-8-16-13-14-12-10-8-11-9-6-4v-2l-4-2-13-12-7-8-4-10v-8l2-9 6-9 7-6z" fill="#FC0938"/>
<path transform="translate(327,1051)" d="m0 0h2l-1 4-9 1-6 3-6 2-4 2-7 1-3 3-15 5-4 2-12 5-13 7h-4v2l-5 4-3 3-13 5-4 3-3 1-3 4-10 5-8 8h-2v2l-5 3h-3v2h-3l-2 4-8 7-10 10-14 16-4 1 2-4 15-16 7-7 6-7 14-11 17-13 13-9 25-14 18-10 41-16 20-7z" fill="#FE7589"/>
<path transform="translate(390,1036)" d="m0 0h5v3l-4-1v2l-12-1v-1z" fill="#FE758A"/>
<path transform="translate(1371,1584)" d="m0 0 3 1-1 3 5 5-1 2-9-9z" fill="#FE758A"/>
</svg>
